HIERARCHY
ROOT Hips
{
  OFFSET 51.4629 57.6194 -16.1161
  CHANNELS 6 Xposition Yposition Zposition Zrotation Xrotation Yrotation
  JOINT spine
  {
    OFFSET 0 7.4756 0.429885
    CHANNELS 3 Zrotation Xrotation Yrotation
    JOINT spine1
    {
      OFFSET 0 9.92301 0
      CHANNELS 3 Zrotation Xrotation Yrotation
      JOINT spine2
      {
        OFFSET 0 9.50804 0
        CHANNELS 3 Zrotation Xrotation Yrotation
        JOINT Neck
        {
          OFFSET 0 24.4111 1.16384
          CHANNELS 3 Zrotation Xrotation Yrotation
          JOINT Head
          {
            OFFSET 0 7.37523 0
            CHANNELS 3 Zrotation Xrotation Yrotation
            End Site
            {
              OFFSET 0 17.8522 -5.88741
            }
          }
        }
        JOINT RightShoulder
        {
          OFFSET -4.00356 10.2679 -0.557468
          CHANNELS 3 Zrotation Xrotation Yrotation
          JOINT RightArm
          {
            OFFSET 0 13.4673 0
            CHANNELS 3 Zrotation Xrotation Yrotation
            JOINT RightArmRoll
            {
              OFFSET 0 6.79858 0
              CHANNELS 3 Zrotation Xrotation Yrotation
              JOINT RightForeArm
              {
                OFFSET 0 19.8018 0
                CHANNELS 3 Zrotation Xrotation Yrotation
                JOINT RightForeArmRoll
                {
                  OFFSET 0 7.62905 0
                  CHANNELS 3 Zrotation Xrotation Yrotation
                  JOINT RightHand
                  {
                    OFFSET 0 15.3098 0
                    CHANNELS 3 Zrotation Xrotation Yrotation
                    End Site
                    {
                      OFFSET 0 0 0
                    }
                  }
                }
              }
            }
          }
        }
        JOINT LeftShoulder
        {
          OFFSET 4.00356 10.2679 -0.557468
          CHANNELS 3 Zrotation Xrotation Yrotation
          JOINT LeftArm
          {
            OFFSET 0 13.4673 0
            CHANNELS 3 Zrotation Xrotation Yrotation
            JOINT LeftArmRoll
            {
              OFFSET 0 6.79858 0
              CHANNELS 3 Zrotation Xrotation Yrotation
              JOINT LeftForeArm
              {
                OFFSET 0 19.8018 0
                CHANNELS 3 Zrotation Xrotation Yrotation
                JOINT LeftForeArmRoll
                {
                  OFFSET 0 7.62905 0
                  CHANNELS 3 Zrotation Xrotation Yrotation
                  JOINT LeftHand
                  {
                    OFFSET 0 15.3098 0
                    CHANNELS 3 Zrotation Xrotation Yrotation
                    End Site
                    {
                      OFFSET 0 0 0
                    }
                  }
                }
              }
            }
          }
        }
      }
    }
  }
  JOINT RightUpLeg
  {
    OFFSET -6.62609 -1.21505 -1.01927
    CHANNELS 3 Zrotation Xrotation Yrotation
    JOINT RightUpLegRoll
    {
      OFFSET 0 17.9517 0
      CHANNELS 3 Zrotation Xrotation Yrotation
      JOINT RightLeg
      {
        OFFSET 0 -22.2304 0
        CHANNELS 3 Zrotation Xrotation Yrotation
        JOINT RightLegRoll
        {
          OFFSET 0 22.3032 0
          CHANNELS 3 Zrotation Xrotation Yrotation
          JOINT RightFoot
          {
            OFFSET 0 18.5636 0
            CHANNELS 3 Zrotation Xrotation Yrotation
            JOINT RightToeBase
            {
              OFFSET 0 15.5183 0
              CHANNELS 3 Zrotation Xrotation Yrotation
              End Site
              {
                OFFSET 0.00657761 7.51538 -0.866263
              }
            }
          }
        }
      }
    }
  }
  JOINT LeftUpLeg
  {
    OFFSET 6.62609 -1.21505 -1.01927
    CHANNELS 3 Zrotation Xrotation Yrotation
    JOINT LeftUpLegRoll
    {
      OFFSET 0 17.9518 0
      CHANNELS 3 Zrotation Xrotation Yrotation
      JOINT LeftLeg
      {
        OFFSET 0 22.2303 0
        CHANNELS 3 Zrotation Xrotation Yrotation
        JOINT LeftLegRoll
        {
          OFFSET 0 22.5093 0
          CHANNELS 3 Zrotation Xrotation Yrotation
          JOINT LeftFoot
          {
            OFFSET 0 18.3575 0
            CHANNELS 3 Zrotation Xrotation Yrotation
            JOINT LeftToeBase
            {
              OFFSET 0 15.5183 0
              CHANNELS 3 Zrotation Xrotation Yrotation
              End Site
              {
                OFFSET -0.029478 7.51538 -0.866263
              }
            }
          }
        }
      }
    }
  }
}
MOTION
Frames: 6
Frame Time: 0.00208333
51.6681 58.342 -16.08 -1.50249 -7.77143 1.91219 0.0525958 2.49183 -0.757554 0.146966 8.99142 -1.52852 0.166035 10.6363 -1.53436 -6.1714 -0.215397 -0.727694 7.20186 7.30341 -1.43464 70.5248 -3.10327 -2.89195 109.421 32.2734 0.671747 7.45785e-007 1.66361e-006 -3.35483e-006 10.6044 23.1159 -3.47961 4.08196e-006 -1.46145e-006 -3.00794 8.02957 -4.95143 0.697668 -68.4146 -9.19891 5.84393 -104.013 27.2596 -14.3975 -1.88384e-007 3.23806e-006 1.88198e-006 -2.57557 14.6954 1.40603 1.21537e-005 -5.07457e-007 3.00642 -8.0301 -4.95138 -0.697632 -161.712 75.8679 -7.34877 -180 7.01172e-015 177.838 -104.521 84.1534 103.303 -2.44369e-006 -3.53375e-006 2.54968 -17.1102 64.405 16.8991 8.14176 25.2324 -3.48998 -165.881 74.4901 -20.6953 4.54188e-006 -4.6773e-006 -1.77617 46.1184 -83.2413 46.2896 -3.7472e-006 -6.57379e-007 -2.08855 19.6231 63.5707 -16.1037 -8.34911 28.2997 3.58408 
51.6618 58.3447 -16.0935 -1.49927 -7.89981 1.94211 0.0602432 2.49088 -0.757915 0.162497 8.99011 -1.53058 0.181638 10.635 -1.53669 -6.2244 -0.0591642 -0.728985 7.20204 7.32083 -1.45408 70.497 -3.12751 -2.90151 109.432 32.2134 0.703087 7.45785e-007 1.66361e-006 -3.35483e-006 10.6062 23.0154 -3.46751 4.08196e-006 -1.46145e-006 -3.00794 8.02957 -4.95143 0.697668 -68.4639 -9.13923 5.81374 -103.977 27.2433 -14.5258 -1.88384e-007 3.23806e-006 1.88198e-006 -2.49721 14.4414 1.38383 1.21537e-005 -5.07457e-007 3.00642 -8.0301 -4.95138 -0.697632 -161.81 75.7851 -7.25233 -180 7.01171e-015 177.836 -104.283 84.1428 103.075 -2.44369e-006 -3.53375e-006 2.55148 -17.1122 64.408 16.9008 8.14176 25.2324 -3.48998 -165.977 74.3768 -20.6175 4.54188e-006 -4.6773e-006 -1.77991 45.9644 -83.2306 46.138 -3.7472e-006 -6.57379e-007 -2.08822 19.6413 63.5438 -16.0829 -8.34906 28.2982 3.58404 
51.6568 58.3427 -16.107 -1.4962 -8.02779 1.97158 0.0677733 2.48995 -0.758398 0.177786 8.98881 -1.53288 0.197001 10.6337 -1.53925 -6.27672 0.0952718 -0.730565 7.20318 7.33943 -1.47374 70.4676 -3.15152 -2.91084 109.447 32.1538 0.734546 7.45785e-007 1.66361e-006 -3.35483e-006 10.6074 22.9118 -3.45496 4.08196e-006 -1.46145e-006 -3.00794 8.02957 -4.95143 0.697668 -68.5126 -9.08048 5.78405 -103.941 27.2269 -14.6536 -1.88384e-007 3.23806e-006 1.88198e-006 -2.41902 14.1884 1.36203 1.21537e-005 -5.07457e-007 3.00642 -8.0301 -4.95138 -0.697632 -161.906 75.7015 -7.15857 -180 7.0117e-015 177.835 -104.051 84.1322 102.853 -2.44369e-006 -3.53375e-006 2.55323 -17.1142 64.4111 16.9025 8.14176 25.2324 -3.48998 -166.068 74.2628 -20.5431 4.54188e-006 -4.6773e-006 -1.78363 45.8097 -83.2198 45.9858 -3.7472e-006 -6.57379e-007 -2.0879 19.6599 63.5174 -16.0624 -8.34902 28.2968 3.584 
51.658 58.331 -16.1257 -1.49329 -8.15541 2.00032 0.0751139 2.48913 -0.759068 0.192682 8.98765 -1.53553 0.211974 10.6325 -1.54216 -6.32813 0.247293 -0.73218 7.20528 7.35953 -1.49332 70.4371 -3.17505 -2.91987 109.464 32.0954 0.765869 7.45785e-007 1.66361e-006 -3.35483e-006 10.6079 22.8051 -3.44196 4.08196e-006 -1.46145e-006 -3.00794 8.02957 -4.95143 0.697668 -68.5601 -9.02331 5.75521 -103.906 27.2104 -14.7804 -1.88384e-007 3.23806e-006 1.88198e-006 -2.34116 13.9378 1.34072 1.21537e-005 -5.07457e-007 3.00642 -8.0301 -4.95138 -0.697632 -161.997 75.6169 -7.06823 -180 7.01169e-015 177.833 -103.827 84.1216 102.639 -2.44369e-006 -3.53375e-006 2.55494 -17.1163 64.4142 16.9043 8.14176 25.2324 -3.48998 -166.156 74.1483 -20.4728 4.54188e-006 -4.6773e-006 -1.78733 45.6547 -83.2089 45.8332 -3.7472e-006 -6.57379e-007 -2.08759 19.6789 63.4916 -16.0423 -8.349 28.2955 3.58399 
51.649 58.3394 -16.1326 -1.49055 -8.28275 2.02808 0.0821926 2.4885 -0.759987 0.207036 8.98678 -1.53864 0.226409 10.6316 -1.54552 -6.37838 0.396281 -0.733578 7.20833 7.38143 -1.5125 70.4061 -3.19784 -2.92851 109.484 32.0388 0.796803 7.45785e-007 1.66361e-006 -3.35483e-006 10.6076 22.6953 -3.42851 4.08196e-006 -1.46145e-006 -3.00794 8.02957 -4.95143 0.697668 -68.6059 -8.96843 5.72757 -103.871 27.1939 -14.906 -1.88384e-007 3.23806e-006 1.88198e-006 -2.2638 13.6909 1.32 1.21537e-005 -5.07457e-007 3.00642 -8.0301 -4.95138 -0.697632 -162.085 75.5309 -6.98206 -180 7.01168e-015 177.83 -103.612 84.1111 102.433 -2.44369e-006 -3.53375e-006 2.55658 -17.1184 64.4174 16.9061 8.14176 25.2324 -3.48998 -166.239 74.033 -20.4069 4.54188e-006 -4.6773e-006 -1.79099 45.4993 -83.198 45.6803 -3.7472e-006 -6.57379e-007 -2.08728 19.6982 63.4665 -16.0226 -8.349 28.2942 3.58399 
51.647 58.3278 -16.1511 -1.488 -8.40985 2.05456 0.0889371 2.48814 -0.76122 0.220697 8.98634 -1.54234 0.240156 10.6312 -1.54946 -6.42725 0.541619 -0.734507 7.21233 7.40541 -1.53097 70.375 -3.21963 -2.93668 109.506 31.9848 0.827097 7.45785e-007 1.66361e-006 -3.35483e-006 10.6065 22.5825 -3.41461 4.08196e-006 -1.46145e-006 -3.00794 8.02957 -4.95143 0.697668 -68.6495 -8.91652 5.70147 -103.836 27.1772 -15.0301 -1.88384e-007 3.23806e-006 1.88198e-006 -2.18709 13.449 1.29998 1.21537e-005 -5.07457e-007 3.00642 -8.0301 -4.95138 -0.697632 -162.167 75.4435 -6.90076 -180 7.01167e-015 177.828 -103.407 84.1008 102.237 -2.44369e-006 -3.53375e-006 2.55816 -17.1206 64.4206 16.908 8.14176 25.2324 -3.48998 -166.316 73.9168 -20.3459 4.54188e-006 -4.6773e-006 -1.7946 45.344 -83.1871 45.5276 -3.7472e-006 -6.57379e-007 -2.08695 19.7176 63.4421 -16.0035 -8.34901 28.2931 3.584 
